<svg width="12" height="12" viewBox="0 0 12 12" fill="none" xmlns="http://www.w3.org/2000/svg">
<path d="M2.83779 0.0367327C2.75101 0.076602 2.67362 0.158687 2.64078 0.245462C2.62671 0.282987 2.61499 0.451847 2.61499 0.625398V0.93732L1.93016 0.946701C1.25707 0.953736 1.23831 0.956081 1.06476 1.01706C0.576939 1.18826 0.236873 1.52598 0.0656678 2.00911L0 2.19673V6.47687V10.757L0.0656678 10.9446C0.236873 11.4278 0.574593 11.7631 1.06476 11.9367L1.243 12H5.99219H10.7414L10.929 11.9343C11.4121 11.7631 11.7475 11.4254 11.9211 10.9352L11.9844 10.757V6.47687V2.19673L11.9211 2.01849C11.7475 1.52833 11.4121 1.19061 10.929 1.0194C10.7437 0.956081 10.7367 0.953736 10.0566 0.946701L9.37173 0.93732L9.3647 0.590219C9.35766 0.210283 9.34594 0.175104 9.19584 0.0648756C9.10437 -0.00313759 8.88392 -0.00313759 8.79245 0.0648756C8.64235 0.175104 8.63063 0.210283 8.62359 0.592564L8.61655 0.94201H5.99219H3.36782L3.36078 0.592564C3.35375 0.212628 3.34202 0.175104 3.19661 0.0672207C3.11688 0.00858879 2.9316 -0.00782776 2.83779 0.0367327ZM2.61968 1.94813C2.62671 2.22488 2.64782 2.27882 2.78854 2.38201C2.88 2.45002 3.10046 2.45002 3.19192 2.38201C3.33264 2.27882 3.35375 2.22488 3.36078 1.94813L3.37017 1.6925H5.99219H8.61421L8.62359 1.94813C8.63063 2.22488 8.65173 2.27882 8.79245 2.38201C8.88392 2.45002 9.10437 2.45002 9.19584 2.38201C9.33656 2.27882 9.35766 2.22488 9.3647 1.94813L9.37408 1.69015L10.0097 1.69719L10.6476 1.70423L10.7812 1.76989C10.9501 1.85198 11.0861 1.988 11.1682 2.15686C11.2339 2.29055 11.2339 2.29289 11.2409 2.83465L11.248 3.3811H5.99453H0.738763V2.88156C0.738763 2.511 0.748144 2.35152 0.771597 2.26709C0.8443 2.03022 1.04834 1.8168 1.28521 1.73471C1.39075 1.69954 1.49394 1.69484 2.0099 1.6925H2.6103L2.61968 1.94813ZM11.2409 7.39622L11.2339 10.6632L11.1706 10.7922C11.0885 10.9587 10.9431 11.1041 10.7789 11.1862L10.6476 11.2495H5.99219H1.33681L1.20782 11.1862C1.0413 11.1041 0.895897 10.9587 0.813812 10.7945L0.750489 10.6632L0.743453 7.39622L0.738763 4.13159H5.99219H11.2456L11.2409 7.39622Z" fill="#7F7F7F"/>
</svg>
