<svg width="16" height="16" viewBox="0 0 16 16" fill="none" xmlns="http://www.w3.org/2000/svg">
<path d="M0.31824 1.85455C-0.106014 1.4303 -0.106014 0.742444 0.318239 0.31819C0.742493 -0.106063 1.43034 -0.106063 1.8546 0.31819L15.6818 14.1454C16.1061 14.5697 16.1061 15.2575 15.6818 15.6818C15.2576 16.106 14.5697 16.106 14.1455 15.6818L0.31824 1.85455Z" fill="#029AAD"/>
<path d="M14.1454 0.318222C14.5697 -0.106032 15.2575 -0.106032 15.6818 0.318222C16.106 0.742476 16.106 1.43033 15.6818 1.85458L1.85455 15.6818C1.43029 16.1061 0.742443 16.1061 0.31819 15.6818C-0.106063 15.2576 -0.106063 14.5697 0.31819 14.1455L14.1454 0.318222Z" fill="#029AAD"/>
</svg>
