<svg width="16" height="20" viewBox="0 0 16 20" fill="none" xmlns="http://www.w3.org/2000/svg">
<path d="M5.64286 0.533958C5.13929 0.600913 4.64643 0.980327 4.425 1.47133C4.31786 1.71684 4.25357 2.08509 4.25 2.49054V2.72489H2.67143C1.675 2.72489 1.01071 2.73977 0.867857 2.7658C0.596429 2.81416 0.360714 2.96667 0.189286 3.20101C0.05 3.39444 0 3.56555 0 3.85941C0 4.2723 0.275 4.67403 0.664286 4.83026C0.835714 4.89722 1.04286 4.90094 8 4.90094C14.9571 4.90094 15.1643 4.89722 15.3357 4.83026C15.725 4.67403 16 4.2723 16 3.85941C16 3.56555 15.95 3.39444 15.8107 3.20101C15.6393 2.96667 15.4036 2.81416 15.1321 2.7658C14.9893 2.73977 14.325 2.72489 13.3286 2.72489H11.75V2.49054C11.75 2.36407 11.7321 2.13345 11.7143 1.98094C11.6214 1.21839 11.0571 0.630671 10.3179 0.530238C9.99643 0.489321 5.97143 0.489321 5.64286 0.533958ZM10.4214 1.64616C10.6286 1.78007 10.6786 1.91398 10.6786 2.34175V2.72489H5.32143V2.34175C5.32143 1.91398 5.37143 1.78007 5.57857 1.64616C5.69286 1.57549 5.76429 1.57177 8 1.57177C10.2357 1.57177 10.3071 1.57549 10.4214 1.64616Z" fill="#029AAD"/>
<path d="M1.10714 6.17309C1.11071 6.23261 1.325 8.95546 1.58571 12.2288C1.95357 16.8078 2.07857 18.2251 2.12857 18.3664C2.26786 18.783 2.61429 19.1699 3.00714 19.3484C3.09643 19.3931 3.27857 19.4414 3.41429 19.4637C3.74643 19.5121 12.2536 19.5121 12.5857 19.4637C12.7214 19.4414 12.9036 19.3931 12.9929 19.3484C13.3857 19.1699 13.7321 18.783 13.8714 18.3664C13.9214 18.2251 14.0464 16.8078 14.4143 12.2288C14.675 8.95546 14.8893 6.23261 14.8929 6.17309V6.07266H1.10714V6.17309ZM5.07143 7.23694C5.33571 7.4192 5.3 7.10303 5.59286 11.9796C5.73571 14.4086 5.85714 16.5103 5.85714 16.6553C5.85714 16.8488 5.83929 16.9455 5.78571 17.0385C5.57143 17.4067 5.05714 17.3956 4.84643 17.0161C4.78571 16.9046 4.75357 16.4693 4.51429 12.4967C4.37143 10.0788 4.25 7.97345 4.25 7.82094C4.25 7.50104 4.31786 7.34853 4.50714 7.22578C4.67143 7.12162 4.91786 7.12906 5.07143 7.23694ZM8.27857 7.22578C8.34286 7.26669 8.425 7.35225 8.46429 7.4192C8.53572 7.53824 8.53572 7.61635 8.53572 12.2288C8.53572 16.8413 8.53572 16.9194 8.46429 17.0385C8.25357 17.3956 7.74643 17.3956 7.53571 17.0385C7.46429 16.9194 7.46429 16.8413 7.46429 12.2288C7.46429 7.61635 7.46429 7.53824 7.53571 7.4192C7.63571 7.25181 7.80714 7.15138 8 7.15138C8.09643 7.15138 8.20714 7.18114 8.27857 7.22578ZM11.4929 7.22578C11.6821 7.34853 11.75 7.50104 11.75 7.82094C11.75 7.97345 11.6286 10.0788 11.4857 12.4967C11.1964 17.3584 11.2321 17.0347 10.9607 17.2244C10.8607 17.2988 10.8036 17.31 10.6321 17.2988C10.45 17.284 10.4107 17.2654 10.2929 17.1463C10.1643 17.0124 10.1607 16.9975 10.15 16.7C10.1464 16.5326 10.2607 14.4086 10.4071 11.9796C10.7 7.10303 10.6643 7.4192 10.9286 7.23694C11.0821 7.12906 11.3286 7.12162 11.4929 7.22578Z" fill="#029AAD"/>
</svg>
