<svg width="20" height="20" viewBox="0 0 20 20" fill="none" xmlns="http://www.w3.org/2000/svg">
<g clip-path="url(#clip0_2044_10621)">
<path d="M4.9168 5.90118C4.74414 5.99688 4.71875 6.09532 4.71875 6.66407V7.15626H4.45215C4.23379 7.15626 4.16523 7.16719 4.08398 7.21095C3.96973 7.27384 3.88086 7.42969 3.88086 7.56641C3.88086 7.70313 3.96973 7.85899 4.08398 7.92188C4.17793 7.97384 4.23125 7.97657 5.22402 7.97657C6.1 7.97657 6.28281 7.98204 6.36406 8.01759C6.60781 8.12423 6.62051 8.50977 6.38691 8.69844C6.31582 8.75587 6.28535 8.75587 5.04121 8.76954C3.8834 8.78321 3.75898 8.78868 3.68535 8.83243C3.58887 8.88712 3.5 9.05665 3.5 9.17969C3.5 9.31641 3.58887 9.47227 3.70312 9.53516C3.79961 9.58712 3.85039 9.58985 5.5998 9.58985H7.39746L7.49648 9.65274C7.75039 9.8086 7.75039 10.1914 7.49648 10.3473L7.39746 10.4102H5.5998C3.85039 10.4102 3.79961 10.4129 3.70312 10.4649C3.58887 10.5277 3.5 10.6836 3.5 10.8203C3.5 10.957 3.58887 11.1129 3.70312 11.1758C3.79199 11.225 3.85293 11.2305 4.26172 11.2305H4.71875V11.8867C4.71875 12.8492 4.71875 12.8492 5.42461 12.8711L5.86387 12.8848L5.91973 13.0625C5.9959 13.3086 6.09492 13.4781 6.26758 13.6641C6.83633 14.2766 7.75547 14.2766 8.32422 13.6641C8.49687 13.4781 8.5959 13.3086 8.67207 13.0625L8.72793 12.8848H10.6602H12.5924L12.6482 13.0625C12.7244 13.3086 12.8234 13.4781 12.9961 13.6641C13.5648 14.2766 14.484 14.2766 15.0527 13.6641C15.2254 13.4781 15.3244 13.3086 15.4006 13.0625L15.4564 12.8848L15.8449 12.8711C16.2918 12.8547 16.3654 12.8274 16.4492 12.6524C16.4975 12.5484 16.5 12.4938 16.5 11.1813C16.5 9.69923 16.4949 9.64454 16.3553 9.3629C16.2639 9.1879 16.0531 8.98282 15.8551 8.88165C15.5377 8.71759 15.5174 8.71485 13.8365 8.71485H12.3055L12.2039 8.65469C12.0033 8.53165 12.0059 8.55626 12.0059 7.11524V5.84376H8.50957C5.07676 5.84649 5.0082 5.84649 4.9168 5.90118ZM7.58789 11.8731C7.82148 11.9988 7.99414 12.2914 7.99414 12.5566C7.99414 12.8219 7.82148 13.1145 7.59043 13.2402C7.2832 13.407 6.83887 13.2375 6.66621 12.8875C6.5875 12.7289 6.5875 12.3844 6.66621 12.2258C6.74238 12.0727 6.93535 11.8949 7.07754 11.8457C7.22227 11.7965 7.47109 11.8074 7.58789 11.8731ZM14.3164 11.8731C14.55 11.9988 14.7227 12.2914 14.7227 12.5566C14.7227 12.8219 14.55 13.1145 14.3189 13.2402C14.0117 13.407 13.5674 13.2375 13.3947 12.8875C13.316 12.7289 13.316 12.3844 13.3947 12.2258C13.4709 12.0727 13.6639 11.8949 13.8061 11.8457C13.9508 11.7965 14.1996 11.8074 14.3164 11.8731Z" fill="#029AAD"/>
<path d="M12.7676 6.91016V7.89453H13.8086C14.3824 7.89453 14.8496 7.88633 14.8496 7.87813C14.8496 7.84258 14.5322 7.30391 14.3824 7.08789C14.0828 6.65313 13.7908 6.37695 13.4125 6.17461C13.2525 6.08984 12.8361 5.92578 12.7777 5.92578C12.7727 5.92578 12.7676 6.36875 12.7676 6.91016Z" fill="#029AAD"/>
</g>
<rect x="0.5" y="0.5" width="19" height="19" rx="9.5" stroke="#FF7A01"/>
<line x1="16.3536" y1="3.35355" x2="3.35355" y2="16.3536" stroke="#FF7A01"/>
<defs>
<clipPath id="clip0_2044_10621">
<rect width="13" height="14" fill="white" transform="translate(3.5 3)"/>
</clipPath>
</defs>
</svg>
