<svg width="20" height="20" viewBox="0 0 20 20" fill="none" xmlns="http://www.w3.org/2000/svg">
<path d="M17.2859 0.52995C17.0815 0.593109 16.9476 0.697136 16.468 1.18012L15.9661 1.68539L17.1484 2.86312L18.3269 4.04457L18.8326 3.54302C19.1077 3.26809 19.3716 2.97458 19.4162 2.89285C19.5241 2.69222 19.5278 2.28726 19.4274 2.07549C19.3865 1.99004 19.0816 1.65195 18.7024 1.273C18.1448 0.715712 18.0221 0.60797 17.8659 0.555957C17.6726 0.492797 17.4421 0.481652 17.2859 0.52995Z" fill="#029AAD"/>
<path d="M11.6237 6.0248L8.10293 9.54314L7.67539 10.8249C7.44116 11.5308 7.24784 12.1475 7.24784 12.1958C7.24784 12.3742 7.39283 12.5971 7.56013 12.6788C7.64564 12.7234 7.75718 12.7568 7.80551 12.7568C7.85384 12.7568 8.471 12.5636 9.17738 12.3296L10.4637 11.9023L17.5276 4.84335L16.3565 3.67305C15.7133 3.03031 15.1779 2.50275 15.1668 2.50275C15.1556 2.50275 13.5644 4.08544 11.6237 6.0248Z" fill="#029AAD"/>
<path d="M2.13584 3.58017C1.41458 3.72878 0.827168 4.2452 0.58551 4.94738L0.5 5.1963V17.8653L0.58551 18.1105C0.797425 18.7272 1.27331 19.2028 1.88675 19.4146L2.13584 19.5H14.8136L15.0627 19.4146C15.6687 19.2028 16.126 18.7532 16.3639 18.1216L16.4494 17.9024L16.468 7.49975L13.8209 10.1413C11.3932 12.5599 11.1515 12.7903 10.9285 12.8943C10.4935 13.1023 8.20332 13.838 7.92448 13.8603C7.46347 13.8974 6.97272 13.7116 6.63068 13.3736C6.28492 13.0243 6.09531 12.5153 6.14736 12.0435C6.17339 11.7871 6.9281 9.4614 7.11028 9.07873C7.21438 8.85582 7.44488 8.61433 9.86518 6.18827L12.5048 3.54301L7.39655 3.54673C4.58588 3.55045 2.21763 3.56531 2.13584 3.58017Z" fill="#029AAD"/>
</svg>
