<svg width="20" height="20" viewBox="0 0 20 20" fill="none" xmlns="http://www.w3.org/2000/svg">
<path d="M10.0862 0.534607L10.0864 0.534792L19.3321 9.39736C19.4443 9.51122 19.5 9.6538 19.5 9.7915C19.5 10.0896 19.2563 10.3332 18.9583 10.3332H17.5H17V10.8332V18.75C17 19.1639 16.6639 19.5 16.25 19.5H12.7083C12.6394 19.5 12.5833 19.4439 12.5833 19.375V13.9583C12.5833 13.5681 12.2655 13.2499 11.875 13.2499H8.125C7.73213 13.2499 7.41672 13.5696 7.41672 13.9583V19.375C7.41672 19.4439 7.36057 19.5 7.29172 19.5H3.75C3.33615 19.5 3 19.1639 3 18.75V10.8332V10.3332H2.5H1.04172C0.743681 10.3332 0.5 10.0896 0.5 9.7915C0.5 9.65075 0.557821 9.50913 0.658828 9.40644L9.91357 0.534784L9.91376 0.534607C9.96184 0.488464 10.0382 0.488464 10.0862 0.534607Z" fill="#001529" stroke="#001529"/>
</svg>
