<svg width="20" height="20" viewBox="0 0 20 20" fill="none" xmlns="http://www.w3.org/2000/svg">
<g clip-path="url(#clip0_2044_10615)">
<path d="M5.92871 4.89746C5.89434 4.93184 5.875 4.97266 5.875 5.01992C5.875 5.08223 5.93516 5.14883 6.47656 5.69238L7.07812 6.29395V6.47656V6.65918L6.86758 6.86973L6.65918 7.07812H6.47656H6.29395L5.69238 6.47656C5.14883 5.93516 5.08223 5.875 5.01992 5.875C4.97266 5.875 4.93184 5.89434 4.89746 5.92871L4.84375 5.98027V6.73867V7.49707L5.32285 7.97402L5.7998 8.45312H6.4873H7.1748L7.90527 9.18359C8.30703 9.58535 8.64434 9.91406 8.65723 9.91406C8.68516 9.91406 9.91406 8.68516 9.91406 8.65723C9.91406 8.64434 9.58535 8.30703 9.18359 7.90527L8.45312 7.1748V6.4873V5.7998L7.97402 5.32285L7.49707 4.84375H6.73867H5.98027L5.92871 4.89746Z" fill="#029AAD"/>
<path d="M13.5191 5.29492C12.982 5.56563 12.6146 5.76113 12.5996 5.78691C12.5867 5.81055 12.5781 5.96953 12.5781 6.15859V6.48731L10.6445 8.4209C9.58105 9.48438 8.71094 10.3631 8.71094 10.376C8.71094 10.4039 9.59609 11.2891 9.62402 11.2891C9.63477 11.2891 10.5156 10.4189 11.5791 9.35547L13.5127 7.42188H13.8414C14.0305 7.42188 14.1895 7.41328 14.2131 7.40039C14.2668 7.37031 15.1562 5.5957 15.1562 5.51621C15.1562 5.46895 15.0939 5.3959 14.849 5.15098C14.5891 4.89102 14.5332 4.84375 14.4795 4.8459C14.4408 4.8459 14.0563 5.02637 13.5191 5.29492Z" fill="#029AAD"/>
<path d="M10.7025 10.7047C10.3631 11.0441 10.0859 11.332 10.0859 11.3428C10.0859 11.3557 10.4146 11.693 10.8164 12.0947L11.5469 12.8252V13.5127V14.2002L12.026 14.6771L12.5029 15.1562H13.2613H14.0197L14.0713 15.1025C14.1057 15.0682 14.125 15.0273 14.125 14.9801C14.125 14.9178 14.0648 14.8512 13.5234 14.3076L12.9219 13.7061V13.5234V13.3408L13.1324 13.1303L13.3408 12.9219H13.5234H13.7061L14.3076 13.5234C14.8512 14.0648 14.9178 14.125 14.9801 14.125C15.0273 14.125 15.0682 14.1057 15.1025 14.0713L15.1562 14.0197V13.2613V12.5029L14.6771 12.026L14.2002 11.5469H13.5127H12.8252L12.0947 10.8164C11.693 10.4146 11.3557 10.0859 11.3428 10.0859C11.3299 10.0859 11.0441 10.3631 10.7025 10.7047Z" fill="#029AAD"/>
<path d="M7.81505 10.5629L7.59161 10.782L8.40372 11.5941L9.21583 12.4062L9.43712 12.185C9.62833 11.9895 9.65626 11.9529 9.65626 11.8885C9.65626 11.8219 9.59825 11.7574 8.91935 11.0807C8.24259 10.4039 8.17814 10.3438 8.11153 10.3438C8.04708 10.3438 8.01056 10.3717 7.81505 10.5629Z" fill="#029AAD"/>
<path d="M6.2166 12.1635C5.01562 13.3666 4.99843 13.3881 4.89531 13.6953C4.8373 13.8672 4.8416 14.2389 4.90605 14.4129C5.15957 15.1133 5.99531 15.3711 6.63125 14.9414C6.74297 14.8684 7.1082 14.516 7.87949 13.7447L8.96875 12.6533L8.15664 11.8412L7.34668 11.0312L6.2166 12.1635Z" fill="#029AAD"/>
</g>
<rect x="0.5" y="0.5" width="19" height="19" rx="9.5" stroke="#FF7A01"/>
<defs>
<clipPath id="clip0_2044_10615">
<rect width="11" height="11" fill="white" transform="translate(4.5 4.5)"/>
</clipPath>
</defs>
</svg>
