<svg width="16" height="16" viewBox="0 0 16 16" fill="none" xmlns="http://www.w3.org/2000/svg">
<path d="M7.72256 0.053174C7.64756 0.0812988 7.52568 0.162549 7.45381 0.234424C7.20381 0.481298 7.21943 0.259423 7.21943 3.9438V7.2188H3.94443C0.260059 7.2188 0.481934 7.2063 0.235059 7.45317C-0.0711914 7.75942 -0.0711914 8.24067 0.235059 8.54692C0.481934 8.7938 0.260059 8.7813 3.94443 8.7813H7.21943V12.0563C7.21943 15.7407 7.20693 15.5188 7.45381 15.7657C7.76006 16.0719 8.24131 16.0719 8.54756 15.7657C8.79443 15.5188 8.78193 15.7407 8.78193 12.0563V8.7813H12.0569C15.7413 8.7813 15.5194 8.7938 15.7663 8.54692C16.0726 8.24067 16.0726 7.75942 15.7663 7.45317C15.5194 7.2063 15.7413 7.2188 12.0569 7.2188H8.78193V3.9438C8.78193 0.259423 8.79443 0.481298 8.54756 0.234424C8.33193 0.0156736 8.01943 -0.0499516 7.72256 0.053174Z" fill="#029AAD"/>
</svg>
