<svg width="20" height="20" viewBox="0 0 20 20" fill="none" xmlns="http://www.w3.org/2000/svg">
<path d="M13.145 8.31161C12.2471 9.20135 11.1481 9.65232 9.87899 9.65232C8.61015 9.65232 7.51134 9.20121 6.61326 8.31175C5.71519 7.42215 5.25986 6.33352 5.25986 5.07601C5.25986 3.8188 5.71519 2.73017 6.61312 1.84057C7.51104 0.950962 8.60971 0.5 9.87899 0.5C11.148 0.5 12.2468 0.950962 13.1449 1.84042C14.0429 2.73031 14.4981 3.81894 14.4981 5.07601C14.4981 6.33352 14.0429 7.422 13.145 8.31161Z" fill="#C4C4C4"/>
<path d="M17.8058 13.9094C17.883 14.3359 17.9353 14.7397 17.9612 15.11C17.9868 15.4718 17.9999 15.8494 18 16.2322C18 17.2245 17.6818 18.0275 17.0541 18.6192C16.4341 19.2037 15.6144 19.5 14.6171 19.5H5.38292C4.38565 19.5 3.56556 19.2036 2.94577 18.6192C2.31823 18.0271 2 17.2242 2 16.2324C2 15.8513 2.01288 15.474 2.03833 15.1104C2.06423 14.7393 2.11661 14.3353 2.19372 13.9094C2.27156 13.4798 2.37178 13.0737 2.49161 12.7025C2.61569 12.3185 2.78424 11.9397 2.99245 11.5766C3.20841 11.1999 3.46255 10.8718 3.74743 10.6016C4.04576 10.3188 4.41081 10.0917 4.83249 9.92629C5.25285 9.76133 5.71871 9.67769 6.21735 9.67769C6.41312 9.67769 6.60259 9.75727 6.96779 9.99312C7.19619 10.1405 7.45955 10.3087 7.75057 10.4929C8.0015 10.6515 8.34183 10.8001 8.76175 10.9345C9.1723 11.0659 9.58857 11.1326 9.99956 11.1326C10.4106 11.1326 10.827 11.0659 11.2371 10.9345C11.6574 10.7999 11.9978 10.6514 12.249 10.4928C12.5428 10.3068 12.806 10.1387 13.031 9.99326C13.3967 9.75742 13.586 9.67783 13.7818 9.67783C14.2803 9.67783 14.7463 9.76133 15.1668 9.92615C15.5887 10.0918 15.9537 10.319 16.2517 10.6015C16.5367 10.8716 16.7907 11.1997 17.007 11.5766C17.2153 11.9397 17.3839 12.3187 17.5078 12.7024C17.6278 13.0736 17.728 13.4798 17.8058 13.9094Z" fill="#C4C4C4"/>
</svg>
