<svg width="10" height="12" viewBox="0 0 10 12" fill="none" xmlns="http://www.w3.org/2000/svg">
<path d="M6.47321 0.021447C6.78795 0.0637347 7.09598 0.303364 7.23438 0.613474C7.30134 0.768528 7.34152 1.00111 7.34375 1.25718V1.40519H8.33036C8.95312 1.40519 9.3683 1.41459 9.45759 1.43103C9.62723 1.46158 9.77455 1.5579 9.8817 1.7059C9.96875 1.82807 10 1.93614 10 2.12173C10 2.38251 9.82812 2.63623 9.58482 2.7349C9.47768 2.77719 9.34821 2.77954 5 2.77954C0.651786 2.77954 0.522322 2.77719 0.415178 2.7349C0.171875 2.63623 0 2.38251 0 2.12173C0 1.93614 0.031249 1.82807 0.118303 1.7059C0.225446 1.5579 0.372767 1.46158 0.54241 1.43103C0.631696 1.41459 1.04687 1.40519 1.66964 1.40519H2.65625V1.25718C2.65625 1.17731 2.66741 1.03165 2.67857 0.935329C2.73661 0.45372 3.08929 0.0825291 3.55134 0.0190977C3.75223 -0.00674469 6.26786 -0.00674469 6.47321 0.021447ZM3.48661 0.723891C3.35714 0.808466 3.32589 0.893042 3.32589 1.16321V1.40519H6.67411V1.16321C6.67411 0.893042 6.64286 0.808466 6.51339 0.723891C6.44196 0.679254 6.39732 0.676905 5 0.676905C3.60268 0.676905 3.55804 0.679254 3.48661 0.723891Z" fill="#029AAD"/>
<path d="M9.30804 3.583C9.3058 3.62059 9.17187 5.34029 9.00893 7.40768C8.77902 10.2997 8.70089 11.1948 8.66964 11.284C8.58259 11.5472 8.36607 11.7915 8.12054 11.9043C8.06473 11.9325 7.95089 11.963 7.86607 11.9771C7.65848 12.0076 2.34152 12.0076 2.13393 11.9771C2.04911 11.963 1.93527 11.9325 1.87946 11.9043C1.63393 11.7915 1.41741 11.5472 1.33036 11.284C1.29911 11.1948 1.22098 10.2997 0.991071 7.40768C0.828125 5.34029 0.694196 3.62059 0.691964 3.583V3.51957H9.30804V3.583ZM6.83036 4.25491C6.66518 4.37002 6.6875 4.17033 6.50446 7.25028C6.41518 8.78438 6.33929 10.1117 6.33929 10.2034C6.33929 10.3255 6.35045 10.3866 6.38393 10.4453C6.51786 10.6779 6.83929 10.6709 6.97098 10.4312C7.00893 10.3608 7.02902 10.0859 7.17857 7.57683C7.26786 6.04978 7.34375 4.72007 7.34375 4.62375C7.34375 4.42171 7.30134 4.32539 7.18304 4.24786C7.08036 4.18208 6.92634 4.18678 6.83036 4.25491ZM4.82589 4.24786C4.78571 4.2737 4.73438 4.32774 4.70982 4.37002C4.66518 4.4452 4.66518 4.49454 4.66518 7.40768C4.66518 10.3208 4.66518 10.3702 4.70982 10.4453C4.84152 10.6709 5.15848 10.6709 5.29018 10.4453C5.33482 10.3702 5.33482 10.3208 5.33482 7.40768C5.33482 4.49454 5.33482 4.4452 5.29018 4.37002C5.22768 4.2643 5.12054 4.20087 5 4.20087C4.93973 4.20087 4.87054 4.21967 4.82589 4.24786ZM2.81696 4.24786C2.69866 4.32539 2.65625 4.42171 2.65625 4.62375C2.65625 4.72007 2.73214 6.04978 2.82143 7.57683C3.00223 10.6474 2.97991 10.443 3.14955 10.5628C3.21205 10.6098 3.24777 10.6168 3.35491 10.6098C3.46875 10.6004 3.4933 10.5887 3.56696 10.5135C3.64732 10.4289 3.64955 10.4195 3.65625 10.2316C3.65848 10.1258 3.58705 8.78438 3.49554 7.25028C3.3125 4.17033 3.33482 4.37002 3.16964 4.25491C3.07366 4.18678 2.91964 4.18208 2.81696 4.24786Z" fill="#029AAD"/>
</svg>
